<svg version="1.1" xmlns="http://www.w3.org/2000/svg" viewBox="0 0 250 250"><desc>Created with Snap</desc><defs></defs><g transform="matrix(0.0629,0,0,0.0629,16.7761,209.4884)"><g transform="matrix(24.2242,0,0,24.2242,509.2918,-3077.1914)">
<g>
	<path d="M28.125,38.683c0.053,0.364-0.199,0.702-0.563,0.755s-0.702-0.199-0.755-0.563c-0.285-1.94-1.055-3.372-2.115-4.346
		c-1.056-0.97-2.41-1.499-3.862-1.632c-1.484-0.136-3.072,0.139-4.561,0.777c-2.095,0.897-3.98,2.51-5.09,4.704
		c-1.948,3.853-2.319,7.582-1.485,10.876c0.765,3.021,2.546,5.687,5.055,7.754c2.53,2.084,5.799,3.561,9.517,4.186
		c5.745,0.966,12.553-0.103,19.364-4.104c2.977-1.748,5.985-4.076,9.051-6.449c0.667-0.516,1.336-1.034,2.009-1.549
		c-1.255-1.027-2.502-2.03-3.725-2.98c-0.764,0.401-1.559,0.745-2.379,1.029c-2.067,0.715-4.222,0.998-6.222,0.932
		c-2.173-0.071-4.174-0.554-5.693-1.342c-2.015-1.046-2.953-2.686-3.005-4.267c-0.023-0.702,0.13-1.392,0.442-2.014
		c0.312-0.62,0.781-1.171,1.391-1.597c1.467-1.025,3.746-1.329,6.565-0.099c2.621,1.144,5.729,3.253,9.018,5.772
		c0.575-0.342,1.129-0.722,1.66-1.137c1.368-1.07,2.583-2.382,3.602-3.915c0.57-0.857,1.078-1.785,1.518-2.78
		c0.432-0.979,0.796-2.018,1.085-3.114c0.795-3.022,0.681-6.136-0.001-8.844c-0.757-3.004-2.202-5.484-3.865-6.75
		c-0.241-0.183-0.499-0.338-0.769-0.464c-1.268-0.593-2.863-0.624-4.373-0.213c-1.519,0.413-2.933,1.269-3.83,2.446
		c-0.217,0.285-0.403,0.587-0.55,0.902c-0.779,1.665-0.89,3.154-0.575,4.388c0.253,0.991,0.779,1.819,1.451,2.441
		c0.673,0.623,1.491,1.042,2.326,1.212c0.889,0.18,1.794,0.076,2.552-0.37c0.338-0.198,0.647-0.516,0.894-0.951
		c0.243-0.427,0.424-0.964,0.514-1.612c0.05-0.364,0.386-0.618,0.75-0.568c0.364,0.05,0.618,0.386,0.568,0.75
		c-0.114,0.821-0.353,1.518-0.675,2.086c-0.367,0.645-0.845,1.127-1.379,1.44c-1.054,0.619-2.288,0.769-3.485,0.526
		c-1.07-0.217-2.113-0.749-2.967-1.54c-0.855-0.792-1.523-1.84-1.841-3.087c-0.385-1.508-0.261-3.304,0.663-5.279
		c0.191-0.409,0.426-0.792,0.696-1.147c1.079-1.417,2.754-2.44,4.538-2.925c1.793-0.488,3.717-0.437,5.285,0.297
		c0.361,0.169,0.701,0.372,1.014,0.61c1.893,1.441,3.52,4.192,4.35,7.485c0.732,2.904,0.853,6.25-0.004,9.506
		c-0.308,1.171-0.695,2.276-1.153,3.312c-0.469,1.062-1.014,2.056-1.627,2.978c-1.097,1.651-2.411,3.067-3.894,4.227
		c-0.438,0.342-0.89,0.662-1.356,0.959c1.177,0.922,2.373,1.887,3.574,2.872c4.632-3.493,9.437-6.713,14.622-8.009
		c7.97-1.991,13.947-0.142,17.581,3.267c1.547,1.452,2.669,3.187,3.34,5.032c0.672,1.85,0.891,3.81,0.629,5.706
		c-0.526,3.819-2.982,7.368-7.57,9.229c-1.328,0.539-2.749,0.872-4.203,1c-1.46,0.128-2.957,0.049-4.431-0.239
		c-0.021-0.004-0.042-0.009-0.062-0.015c-3.752-0.793-10.081-6.07-16.732-11.615c-1.064-0.887-2.136-1.781-3.206-2.664
		c-0.754,0.576-1.505,1.156-2.252,1.734c-1.052,0.814-2.098,1.623-3.14,2.407c-2.26,1.966-5.291,3.823-8.231,5.625
		c-1.177,0.721-2.339,1.433-3.399,2.119c-2.385,1.543-4.316,3.423-5.728,5.425c0.304-0.086,0.603-0.172,0.897-0.256
		c2.714-0.781,5.032-1.447,7.178-0.968c3.765,0.841,5.662,3.677,6.075,6.88c0.162,1.252,0.094,2.557-0.179,3.812
		c-0.273,1.256-0.753,2.473-1.417,3.551c-1.709,2.773-4.613,4.603-8.325,3.829c-2.375-0.496-4.21-1.433-5.545-2.673
		c-1.661-1.544-2.536-3.543-2.704-5.743c-0.154-2.023,0.296-4.212,1.287-6.361c-3.959,0.852-8.667,1.123-14.398-1.323
		c-0.338-0.144-0.495-0.534-0.352-0.872c0.144-0.338,0.534-0.495,0.872-0.352c5.901,2.518,10.704,1.971,14.697,0.987
		c1.333-2.255,3.265-4.414,5.72-6.223c-4.509,1.372-8.861,1.604-12.755,0.949c-3.951-0.664-7.435-2.243-10.142-4.473
		c-2.728-2.247-4.666-5.154-5.503-8.457c-0.91-3.591-0.514-7.638,1.589-11.798c1.259-2.489,3.391-4.316,5.756-5.329
		c1.685-0.722,3.496-1.032,5.201-0.876c1.736,0.159,3.363,0.798,4.644,1.975C26.87,34.723,27.793,36.417,28.125,38.683
		L28.125,38.683z M56.168,56.408l-1.027-1.313l1.313-1.027l1.027,1.313L56.168,56.408z M45.667,64.624l-1.027-1.313l1.313-1.027
		l1.027,1.313L45.667,64.624z M50.917,60.516l-1.027-1.313l1.313-1.027l1.027,1.313L50.917,60.516z M34.258,68.296
		c-0.737,0.212-1.503,0.432-2.301,0.64c-0.105,0.193-0.206,0.386-0.302,0.579c-1.023,2.068-1.496,4.171-1.35,6.088
		c0.143,1.87,0.882,3.565,2.282,4.868c1.162,1.081,2.785,1.902,4.909,2.345c3.072,0.641,5.49-0.898,6.924-3.224
		c0.58-0.942,1.003-2.017,1.245-3.134c0.243-1.118,0.304-2.269,0.163-3.364c-0.346-2.681-1.921-5.052-5.043-5.75
		C38.975,66.939,36.802,67.564,34.258,68.296z M70.723,41.55c-4.857,1.214-9.448,4.253-13.889,7.587
		c0.991,0.819,1.983,1.646,2.968,2.467c6.53,5.445,12.745,10.626,16.166,11.338c0.01,0.001,0.019,0.003,0.029,0.005
		c1.349,0.263,2.724,0.336,4.066,0.218c1.325-0.116,2.616-0.418,3.818-0.906c4.098-1.663,6.288-4.803,6.752-8.172
		c0.232-1.684,0.037-3.428-0.561-5.076c-0.601-1.653-1.609-3.21-3.001-4.517C83.734,41.367,78.189,39.684,70.723,41.55L70.723,41.55
		z M49.795,45.215c-3.032-2.297-5.875-4.199-8.262-5.241c-2.334-1.019-4.15-0.817-5.273-0.031c-0.425,0.297-0.75,0.677-0.964,1.103
		c-0.213,0.424-0.318,0.896-0.302,1.379c0.038,1.133,0.75,2.33,2.287,3.127c1.351,0.701,3.152,1.131,5.125,1.196
		c1.85,0.061,3.842-0.2,5.748-0.859C48.715,45.693,49.262,45.469,49.795,45.215z" fill="#f4b41a" style=""></path>
</g>
<desc>Created with Snap</desc><defs></defs></g><g><g transform="matrix(0.5,0,0,-0.5,0,0)"><path d="M1238 1304L427 421L322 543L1013 1310L1017 1315L908 1329L908 1456L1375 1456L1375 1329L1238 1304ZM604 0L81 0L81 126L244 154L244 1301L81 1329L81 1456L604 1456L604 1329L441 1301L441 154L604 126L604 0ZM1427 0L941 0L941 126L1061 140L1060 141L657 700L767 855L1293 151L1427 126L1427 0ZM1925 -21Q1756 -21 1668 61Q1580 144 1580 294Q1580 397 1636 473Q1693 550 1800 592Q1907 635 2056 635L2249 635L2249 741Q2249 839 2189 893Q2130 947 2022 947Q1954 947 1904 930Q1854 914 1813 885L1792 734L1640 734L1640 982Q1713 1041 1810 1071Q1907 1102 2025 1102Q2222 1102 2334 1008Q2446 914 2446 739L2446 218Q2446 197 2446 177Q2447 157 2449 137L2554 126L2554 0L2271 0Q2262 44 2257 79Q2252 114 2250 149Q2193 76 2107 27Q2022 -21 1925 -21ZM1954 144Q2052 144 2133 191Q2214 238 2249 304L2249 500L2049 500Q1913 500 1845 435Q1777 370 1777 290Q1777 219 1821 181Q1865 144 1954 144ZM3329 0L3156 0L2771 940L2659 955L2659 1082L3113 1082L3113 955L2972 935L3212 319L3240 232L3246 232L3278 319L3501 935L3356 955L3356 1082L3809 1082L3809 955L3695 940L3329 0ZM4351 -21Q4242 -21 4147 1Q4052 23 3945 69L3943 326L4092 326L4129 171Q4185 148 4237 137Q4290 127 4351 127Q4471 127 4523 173Q4575 219 4575 287Q4575 351 4522 395Q4470 440 4332 471Q4136 516 4043 591Q3951 667 3951 793Q3951 881 4002 950Q4053 1020 4144 1061Q4235 1102 4356 1102Q4479 1102 4566 1074Q4654 1046 4719 999L4729 752L4581 752L4549 896Q4514 922 4466 936Q4418 950 4356 950Q4264 950 4206 907Q4149 864 4149 799Q4149 761 4165 733Q4182 705 4229 682Q4276 660 4367 638Q4593 585 4682 503Q4772 421 4772 301Q4772 164 4670 71Q4569 -21 4351 -21ZM5285 -21Q5116 -21 5028 61Q4940 144 4940 294Q4940 397 4996 473Q5053 550 5160 592Q5267 635 5416 635L5609 635L5609 741Q5609 839 5549 893Q5490 947 5382 947Q5314 947 5264 930Q5214 914 5173 885L5152 734L5000 734L5000 982Q5073 1041 5170 1071Q5267 1102 5385 1102Q5582 1102 5694 1008Q5806 914 5806 739L5806 218Q5806 197 5806 177Q5807 157 5809 137L5914 126L5914 0L5631 0Q5622 44 5617 79Q5612 114 5610 149Q5553 76 5467 27Q5382 -21 5285 -21ZM5314 144Q5412 144 5493 191Q5574 238 5609 304L5609 500L5409 500Q5273 500 5205 435Q5137 370 5137 290Q5137 219 5181 181Q5225 144 5314 144ZM6588 0L6065 0L6065 126L6228 154L6228 927L6065 955L6065 1082L6404 1082L6421 944L6423 925Q6469 1008 6536 1055Q6604 1102 6691 1102Q6722 1102 6754 1096Q6787 1091 6801 1086L6775 903L6638 911Q6560 916 6507 875Q6454 835 6425 767L6425 154L6588 126L6588 0Z" fill="#143d59" style=""></path></g></g></g></svg>